<svg width="28" height="28" viewBox="0 0 28 28" fill="none" xmlns="http://www.w3.org/2000/svg">
<circle cx="13.9553" cy="13.8381" r="13.0866" stroke="#848692" stroke-width="1.5"/>
<path d="M12.4521 17.5965L14.0186 19.6675L15.5853 17.5958H20.0345C20.3004 17.5958 20.5555 17.523 20.7435 17.3934C20.9315 17.2638 21.0372 17.088 21.0372 16.9047V10.6903C21.0372 10.5996 21.0112 10.5098 20.9608 10.426C20.9104 10.3422 20.8365 10.2661 20.7434 10.202C20.6503 10.1378 20.5398 10.087 20.4181 10.0524C20.2965 10.0177 20.1661 9.99991 20.0345 10H8.00265C7.73673 10 7.4817 10.0728 7.29367 10.2024C7.10564 10.332 7 10.5078 7 10.691V16.9061C7 17.2876 7.44819 17.5965 8.00265 17.5965H12.4521Z" fill="#848692" stroke="#848692" stroke-linecap="square" stroke-linejoin="round"/>
<path d="M12.1821 14.3315C12.1821 14.4956 12.1541 14.6453 12.0981 14.7808C12.0422 14.9162 11.966 15.0327 11.8696 15.1304C11.7733 15.2267 11.66 15.3016 11.5298 15.355C11.4009 15.4084 11.2622 15.4351 11.1138 15.4351C10.9666 15.4351 10.828 15.4077 10.6978 15.353C10.5688 15.2983 10.4556 15.2222 10.3579 15.1245C10.2616 15.0269 10.1854 14.911 10.1294 14.7769C10.0734 14.6414 10.0454 14.493 10.0454 14.3315V12.4722H10.5806V13.4487C10.6092 13.4123 10.6437 13.3797 10.6841 13.3511C10.7257 13.3224 10.77 13.299 10.8169 13.2808C10.8651 13.2625 10.9146 13.2489 10.9653 13.2397C11.0161 13.2293 11.0656 13.2241 11.1138 13.2241C11.2622 13.2241 11.4009 13.2521 11.5298 13.3081C11.66 13.3628 11.7733 13.4396 11.8696 13.5386C11.966 13.6375 12.0422 13.7547 12.0981 13.8901C12.1541 14.0243 12.1821 14.1714 12.1821 14.3315ZM11.645 14.3315C11.645 14.2508 11.6307 14.1759 11.6021 14.1069C11.5747 14.0366 11.5369 13.9761 11.4888 13.9253C11.4406 13.8745 11.384 13.8348 11.3188 13.8062C11.255 13.7775 11.1867 13.7632 11.1138 13.7632C11.0409 13.7632 10.9718 13.7795 10.9067 13.812C10.8429 13.8433 10.7869 13.8856 10.7388 13.939C10.6906 13.991 10.6528 14.0516 10.6255 14.1206C10.5981 14.1883 10.5845 14.2586 10.5845 14.3315C10.5845 14.4123 10.5981 14.4871 10.6255 14.5562C10.6528 14.6252 10.6906 14.6851 10.7388 14.7358C10.7869 14.7866 10.8429 14.827 10.9067 14.8569C10.9718 14.8856 11.0409 14.8999 11.1138 14.8999C11.1867 14.8999 11.255 14.8856 11.3188 14.8569C11.384 14.827 11.4406 14.7866 11.4888 14.7358C11.5369 14.6851 11.5747 14.6252 11.6021 14.5562C11.6307 14.4871 11.645 14.4123 11.645 14.3315ZM13.0161 15.396H12.479V12.4722H13.0161V15.396ZM15.4458 14.3315C15.4458 14.4878 15.4178 14.6336 15.3618 14.769C15.3058 14.9032 15.2297 15.0197 15.1333 15.1187C15.0369 15.2163 14.9237 15.2938 14.7935 15.3511C14.6646 15.4071 14.5259 15.4351 14.3774 15.4351C14.2303 15.4351 14.0916 15.4071 13.9614 15.3511C13.8325 15.2938 13.7192 15.2163 13.6216 15.1187C13.5252 15.0197 13.4491 14.9032 13.3931 14.769C13.3371 14.6336 13.3091 14.4878 13.3091 14.3315C13.3091 14.1727 13.3371 14.0256 13.3931 13.8901C13.4491 13.7547 13.5252 13.6382 13.6216 13.5405C13.7192 13.4416 13.8325 13.3641 13.9614 13.3081C14.0916 13.2521 14.2303 13.2241 14.3774 13.2241C14.5259 13.2241 14.6646 13.2508 14.7935 13.3042C14.9237 13.3563 15.0369 13.4312 15.1333 13.5288C15.2297 13.6252 15.3058 13.7417 15.3618 13.8784C15.4178 14.0138 15.4458 14.1649 15.4458 14.3315ZM14.9087 14.3315C14.9087 14.2456 14.8944 14.1681 14.8657 14.0991C14.8384 14.0288 14.8006 13.9689 14.7524 13.9194C14.7043 13.8687 14.6476 13.8302 14.5825 13.8042C14.5187 13.7769 14.4504 13.7632 14.3774 13.7632C14.3045 13.7632 14.2355 13.7769 14.1704 13.8042C14.1066 13.8302 14.0506 13.8687 14.0024 13.9194C13.9556 13.9689 13.9185 14.0288 13.8911 14.0991C13.8638 14.1681 13.8501 14.2456 13.8501 14.3315C13.8501 14.4123 13.8638 14.4871 13.8911 14.5562C13.9185 14.6252 13.9556 14.6851 14.0024 14.7358C14.0506 14.7866 14.1066 14.827 14.1704 14.8569C14.2355 14.8856 14.3045 14.8999 14.3774 14.8999C14.4504 14.8999 14.5187 14.8862 14.5825 14.8589C14.6476 14.8315 14.7043 14.7931 14.7524 14.7437C14.8006 14.6942 14.8384 14.6343 14.8657 14.564C14.8944 14.4937 14.9087 14.4162 14.9087 14.3315ZM17.229 14.3315C17.229 14.2586 17.2147 14.1883 17.186 14.1206C17.1587 14.0516 17.1209 13.991 17.0728 13.939C17.0246 13.8856 16.9679 13.8433 16.9028 13.812C16.839 13.7795 16.7707 13.7632 16.6978 13.7632C16.6248 13.7632 16.5558 13.7756 16.4907 13.8003C16.4269 13.825 16.3709 13.8615 16.3228 13.9097C16.2759 13.9578 16.2388 14.0177 16.2114 14.0894C16.1841 14.1597 16.1704 14.2404 16.1704 14.3315C16.1704 14.4188 16.1841 14.4976 16.2114 14.5679C16.2388 14.6369 16.2759 14.6961 16.3228 14.7456C16.3709 14.7951 16.4269 14.8335 16.4907 14.8608C16.5558 14.8869 16.6248 14.8999 16.6978 14.8999C16.7707 14.8999 16.839 14.8843 16.9028 14.853C16.9679 14.8205 17.0246 14.7782 17.0728 14.7261C17.1209 14.6727 17.1587 14.6121 17.186 14.5444C17.2147 14.4754 17.229 14.4045 17.229 14.3315ZM17.7661 15.1323C17.7661 15.2795 17.7381 15.4175 17.6821 15.5464C17.6261 15.6753 17.5493 15.7879 17.4517 15.8843C17.3553 15.9806 17.242 16.0568 17.1118 16.1128C16.9829 16.1688 16.8449 16.1968 16.6978 16.1968L16.4302 16.1929V15.6597L16.6938 15.6636C16.7772 15.6636 16.8481 15.6525 16.9067 15.6304C16.9653 15.6095 17.0148 15.5802 17.0552 15.5425C17.0955 15.506 17.1274 15.4637 17.1509 15.4155C17.1756 15.3674 17.1951 15.3166 17.2095 15.2632C17.1886 15.297 17.1587 15.325 17.1196 15.3472C17.0806 15.368 17.0369 15.3849 16.9888 15.3979C16.9419 15.4123 16.8924 15.422 16.8403 15.4272C16.7896 15.4325 16.742 15.4351 16.6978 15.4351C16.5506 15.4351 16.4119 15.4097 16.2817 15.3589C16.1528 15.3081 16.0396 15.2358 15.9419 15.1421C15.8455 15.047 15.7694 14.9312 15.7134 14.7944C15.6574 14.6577 15.6294 14.5034 15.6294 14.3315C15.6294 14.174 15.6574 14.0275 15.7134 13.8921C15.7694 13.7567 15.8455 13.6395 15.9419 13.5405C16.0396 13.4416 16.1528 13.3641 16.2817 13.3081C16.4119 13.2521 16.5506 13.2241 16.6978 13.2241C16.7655 13.2241 16.8325 13.2326 16.8989 13.2495C16.9653 13.2664 17.0298 13.2899 17.0923 13.3198C17.1548 13.3498 17.214 13.3849 17.27 13.4253C17.3273 13.4657 17.3807 13.5093 17.4302 13.5562L17.6372 13.3081H17.7661V15.1323Z" fill="white"/>
</svg>
