<svg width="28" height="28" viewBox="0 0 28 28" fill="none" xmlns="http://www.w3.org/2000/svg">
<circle cx="13.6105" cy="13.6105" r="12.8605" stroke="#848692" stroke-width="1.5"/>
<path d="M8.21801 13.7919C8.21801 10.593 10.6552 8 13.6618 8C16.6684 8 19.1056 10.593 19.1056 13.7919C19.1056 16.9908 16.6684 19.5838 13.6618 19.5838C12.7228 19.5838 11.8387 19.3307 11.067 18.8847L8.82499 19.563C8.46597 19.6716 8.13445 19.3185 8.23652 18.9369L8.87399 16.5512C8.44194 15.7042 8.2164 14.7555 8.21801 13.7919Z" fill="#848692"/>
<path d="M12.7008 14.0331H13.3458C13.3458 14.4864 13.2325 14.8348 13.0058 15.0781C12.7792 15.3214 12.4592 15.4431 12.0458 15.4431C11.1358 15.4431 10.6808 14.9081 10.6808 13.8381V13.5381C10.6808 12.6948 10.9142 12.1664 11.3808 11.9531C11.5642 11.8664 11.7858 11.8231 12.0458 11.8231C12.4258 11.8231 12.7342 11.9281 12.9708 12.1381C13.2108 12.3448 13.3308 12.6448 13.3308 13.0381H12.6808C12.6442 12.8414 12.5792 12.6931 12.4858 12.5931C12.3925 12.4931 12.2458 12.4431 12.0458 12.4431C11.8125 12.4431 11.6392 12.5164 11.5258 12.6631C11.4458 12.7664 11.3992 12.9431 11.3858 13.1931C11.3792 13.2731 11.3758 13.3814 11.3758 13.5181V13.8281C11.3758 14.2114 11.4292 14.4731 11.5358 14.6131C11.6458 14.7531 11.8158 14.8231 12.0458 14.8231C12.2792 14.8231 12.4392 14.7598 12.5258 14.6331C12.6158 14.5031 12.6742 14.3031 12.7008 14.0331ZM16.0929 15.4131H15.4429V13.6231C15.4429 13.3164 15.3229 13.1631 15.0829 13.1631L14.4629 13.4081V15.4131H13.8129V11.6531H14.4629V12.8981L15.2879 12.5281C15.5813 12.5281 15.7879 12.6114 15.9079 12.7781C16.0313 12.9448 16.0929 13.1781 16.0929 13.4781V15.4131Z" fill="white"/>
</svg>
